<svg width="1500" height="500" viewBox="0 0 1500 500" fill="none" xmlns="http://www.w3.org/2000/svg">
<g clip-path="url(#clip0_4_18)">
<rect width="1500" height="500" fill="url(#paint0_linear_4_18)"/>
<path d="M1473.15 392.289L1469.59 447.472L1417.52 463.917L1459.51 416.712L1417.52 423.596L1473.15 392.289Z" fill="url(#paint1_linear_4_18)"/>
<path d="M589.396 290L617.595 212.495H627.37V225.332H623.986L602.072 290H589.396ZM603.093 269.053L606.584 259.385H641.604L645.095 269.053H603.093ZM646.115 290L624.255 225.332V212.495H630.646L658.791 290H646.115ZM686.936 291.128C682.209 291.128 678.145 290.412 674.743 288.979C671.377 287.511 668.728 285.488 666.794 282.91C664.86 280.296 663.697 277.271 663.303 273.833L663.249 273.35H674.743L674.851 273.887C675.424 276.465 676.695 278.488 678.664 279.956C680.633 281.388 683.391 282.104 686.936 282.104C689.299 282.104 691.304 281.818 692.951 281.245C694.598 280.636 695.869 279.777 696.765 278.667C697.66 277.557 698.107 276.232 698.107 274.692V274.639C698.107 272.812 697.517 271.344 696.335 270.234C695.153 269.124 693.041 268.193 689.997 267.441L680.759 265.347C677.178 264.523 674.188 263.395 671.789 261.963C669.426 260.531 667.653 258.776 666.472 256.699C665.29 254.622 664.699 252.223 664.699 249.502V249.448C664.699 246.047 665.612 243.075 667.438 240.532C669.265 237.954 671.825 235.967 675.119 234.57C678.413 233.138 682.227 232.422 686.56 232.422C691 232.422 694.831 233.174 698.054 234.678C701.276 236.182 703.783 238.241 705.573 240.854C707.399 243.433 708.402 246.315 708.581 249.502V250.146H697.678L697.624 249.771C697.302 247.3 696.192 245.295 694.294 243.755C692.396 242.179 689.818 241.392 686.56 241.392C684.483 241.392 682.674 241.696 681.135 242.305C679.595 242.913 678.413 243.791 677.59 244.937C676.766 246.047 676.354 247.354 676.354 248.857V248.911C676.354 250.057 676.623 251.095 677.16 252.026C677.733 252.957 678.646 253.763 679.899 254.443C681.153 255.124 682.764 255.697 684.733 256.162L693.972 258.311C699.737 259.635 703.819 261.515 706.218 263.95C708.653 266.349 709.87 269.59 709.87 273.672V273.726C709.87 277.163 708.885 280.189 706.916 282.803C704.947 285.417 702.225 287.458 698.752 288.926C695.314 290.394 691.376 291.128 686.936 291.128ZM740.109 291.128C735.383 291.128 731.319 290.412 727.917 288.979C724.551 287.511 721.901 285.488 719.968 282.91C718.034 280.296 716.87 277.271 716.477 273.833L716.423 273.35H727.917L728.024 273.887C728.597 276.465 729.868 278.488 731.838 279.956C733.807 281.388 736.564 282.104 740.109 282.104C742.473 282.104 744.478 281.818 746.125 281.245C747.772 280.636 749.043 279.777 749.938 278.667C750.834 277.557 751.281 276.232 751.281 274.692V274.639C751.281 272.812 750.69 271.344 749.509 270.234C748.327 269.124 746.215 268.193 743.171 267.441L733.933 265.347C730.352 264.523 727.362 263.395 724.963 261.963C722.6 260.531 720.827 258.776 719.646 256.699C718.464 254.622 717.873 252.223 717.873 249.502V249.448C717.873 246.047 718.786 243.075 720.612 240.532C722.438 237.954 724.999 235.967 728.293 234.57C731.587 233.138 735.401 232.422 739.733 232.422C744.174 232.422 748.005 233.174 751.228 234.678C754.45 236.182 756.957 238.241 758.747 240.854C760.573 243.433 761.576 246.315 761.755 249.502V250.146H750.852L750.798 249.771C750.476 247.3 749.366 245.295 747.468 243.755C745.57 242.179 742.992 241.392 739.733 241.392C737.657 241.392 735.848 241.696 734.309 242.305C732.769 242.913 731.587 243.791 730.764 244.937C729.94 246.047 729.528 247.354 729.528 248.857V248.911C729.528 250.057 729.797 251.095 730.334 252.026C730.907 252.957 731.82 253.763 733.073 254.443C734.326 255.124 735.938 255.697 737.907 256.162L747.146 258.311C752.91 259.635 756.993 261.515 759.392 263.95C761.826 266.349 763.044 269.59 763.044 273.672V273.726C763.044 277.163 762.059 280.189 760.09 282.803C758.12 285.417 755.399 287.458 751.926 288.926C748.488 290.394 744.549 291.128 740.109 291.128ZM796.184 291.128C790.669 291.128 785.907 289.946 781.896 287.583C777.922 285.184 774.86 281.8 772.712 277.432C770.599 273.027 769.543 267.853 769.543 261.909V261.855C769.543 255.983 770.617 250.845 772.766 246.44C774.914 242 777.94 238.563 781.843 236.128C785.746 233.657 790.329 232.422 795.593 232.422C800.892 232.422 805.44 233.604 809.235 235.967C813.067 238.294 816.021 241.606 818.098 245.903C820.174 250.164 821.213 255.124 821.213 260.781V264.702H775.29V256.484H815.573L809.826 264.165V259.653C809.826 255.679 809.217 252.384 808 249.771C806.818 247.121 805.153 245.151 803.005 243.862C800.892 242.573 798.439 241.929 795.646 241.929C792.889 241.929 790.419 242.609 788.234 243.97C786.05 245.33 784.331 247.336 783.078 249.985C781.825 252.599 781.198 255.822 781.198 259.653V264.165C781.198 267.817 781.807 270.951 783.024 273.564C784.278 276.143 786.05 278.13 788.342 279.526C790.633 280.887 793.337 281.567 796.452 281.567C798.744 281.567 800.767 281.227 802.521 280.547C804.276 279.831 805.726 278.9 806.872 277.754C808.054 276.572 808.877 275.265 809.343 273.833L809.504 273.403H820.568L820.461 273.994C819.995 276.214 819.118 278.345 817.829 280.386C816.54 282.427 814.857 284.271 812.78 285.918C810.739 287.529 808.322 288.8 805.529 289.731C802.736 290.662 799.621 291.128 796.184 291.128ZM850.056 291.128C844.47 291.128 840.298 289.875 837.541 287.368C834.82 284.826 833.459 280.726 833.459 275.068V242.734H825.349V233.496H833.459V218.779H845.383V233.496H855.964V242.734H845.383V274.424C845.383 277.288 846.009 279.258 847.263 280.332C848.516 281.37 850.378 281.89 852.849 281.89C853.457 281.89 854.012 281.872 854.514 281.836C855.051 281.764 855.534 281.711 855.964 281.675V290.645C855.284 290.752 854.424 290.859 853.386 290.967C852.347 291.074 851.237 291.128 850.056 291.128ZM886.74 291.128C882.014 291.128 877.95 290.412 874.548 288.979C871.182 287.511 868.532 285.488 866.599 282.91C864.665 280.296 863.501 277.271 863.107 273.833L863.054 273.35H874.548L874.655 273.887C875.228 276.465 876.499 278.488 878.469 279.956C880.438 281.388 883.195 282.104 886.74 282.104C889.104 282.104 891.109 281.818 892.756 281.245C894.403 280.636 895.674 279.777 896.569 278.667C897.465 277.557 897.912 276.232 897.912 274.692V274.639C897.912 272.812 897.321 271.344 896.14 270.234C894.958 269.124 892.845 268.193 889.802 267.441L880.563 265.347C876.983 264.523 873.993 263.395 871.594 261.963C869.23 260.531 867.458 258.776 866.276 256.699C865.095 254.622 864.504 252.223 864.504 249.502V249.448C864.504 246.047 865.417 243.075 867.243 240.532C869.069 237.954 871.63 235.967 874.924 234.57C878.218 233.138 882.032 232.422 886.364 232.422C890.804 232.422 894.636 233.174 897.858 234.678C901.081 236.182 903.588 238.241 905.378 240.854C907.204 243.433 908.207 246.315 908.386 249.502V250.146H897.482L897.429 249.771C897.106 247.3 895.996 245.295 894.099 243.755C892.201 242.179 889.623 241.392 886.364 241.392C884.287 241.392 882.479 241.696 880.939 242.305C879.4 242.913 878.218 243.791 877.395 244.937C876.571 246.047 876.159 247.354 876.159 248.857V248.911C876.159 250.057 876.428 251.095 876.965 252.026C877.538 252.957 878.451 253.763 879.704 254.443C880.957 255.124 882.569 255.697 884.538 256.162L893.776 258.311C899.541 259.635 903.623 261.515 906.022 263.95C908.457 266.349 909.675 269.59 909.675 273.672V273.726C909.675 277.163 908.69 280.189 906.721 282.803C904.751 285.417 902.03 287.458 898.557 288.926C895.119 290.394 891.18 291.128 886.74 291.128Z" fill="url(#paint2_linear_4_18)"/>
<path d="M-82 524L243 195L587.5 71L548.5 -63" stroke="#333333" stroke-width="4" stroke-dasharray="32 32"/>
<path d="M377 837L702 508L1046.5 384L1007.5 250" stroke="#333333" stroke-width="4" stroke-dasharray="32 32"/>
</g>
<defs>
<linearGradient id="paint0_linear_4_18" x1="12.9999" y1="0.00017648" x2="1500" y2="399" gradientUnits="userSpaceOnUse">
<stop/>
<stop offset="1" stop-color="#030303"/>
</linearGradient>
<linearGradient id="paint1_linear_4_18" x1="1437" y1="468.235" x2="1454.74" y2="388.207" gradientUnits="userSpaceOnUse">
<stop stop-color="#9A9A9A"/>
<stop offset="0.916667" stop-color="white"/>
</linearGradient>
<linearGradient id="paint2_linear_4_18" x1="750.5" y1="185" x2="750.5" y2="316" gradientUnits="userSpaceOnUse">
<stop stop-color="#BFBFBF"/>
<stop offset="1" stop-color="white"/>
</linearGradient>
<clipPath id="clip0_4_18">
<rect width="1500" height="500" fill="white"/>
</clipPath>
</defs>
</svg>
