<svg width="1500" height="500" viewBox="0 0 1500 500" fill="none" xmlns="http://www.w3.org/2000/svg">
<rect width="1500" height="500" fill="url(#paint0_linear_1_7)"/>
<path d="M1485.39 423.798L1483.03 460.259L1448.63 471.124L1476.38 439.935L1448.63 444.483L1485.39 423.798Z" fill="url(#paint1_linear_1_7)"/>
<path d="M349.144 224V146.495H361.175V224H349.144ZM374.012 224V167.496H385.721V176.036H385.936C387.439 173.172 389.642 170.862 392.542 169.107C395.442 167.317 399.023 166.422 403.284 166.422C409.479 166.422 414.277 168.302 417.679 172.062C421.08 175.785 422.781 180.906 422.781 187.423V224H411.126V189.679C411.126 185.418 410.123 182.141 408.118 179.85C406.149 177.558 403.159 176.412 399.148 176.412C396.427 176.412 394.046 177.021 392.005 178.238C390 179.456 388.442 181.157 387.332 183.341C386.258 185.525 385.721 188.103 385.721 191.075V224H374.012ZM455.223 225.128C450.496 225.128 446.432 224.412 443.03 222.979C439.664 221.511 437.015 219.488 435.081 216.91C433.147 214.296 431.984 211.271 431.59 207.833L431.536 207.35H443.03L443.138 207.887C443.711 210.465 444.982 212.488 446.951 213.956C448.921 215.388 451.678 216.104 455.223 216.104C457.586 216.104 459.591 215.818 461.238 215.245C462.885 214.636 464.157 213.777 465.052 212.667C465.947 211.557 466.395 210.232 466.395 208.692V208.639C466.395 206.812 465.804 205.344 464.622 204.234C463.44 203.124 461.328 202.193 458.284 201.441L449.046 199.347C445.465 198.523 442.475 197.395 440.076 195.963C437.713 194.531 435.94 192.776 434.759 190.699C433.577 188.622 432.986 186.223 432.986 183.502V183.448C432.986 180.047 433.899 177.075 435.726 174.532C437.552 171.954 440.112 169.967 443.406 168.57C446.701 167.138 450.514 166.422 454.847 166.422C459.287 166.422 463.118 167.174 466.341 168.678C469.563 170.182 472.07 172.241 473.86 174.854C475.687 177.433 476.689 180.315 476.868 183.502V184.146H465.965L465.911 183.771C465.589 181.3 464.479 179.295 462.581 177.755C460.683 176.179 458.105 175.392 454.847 175.392C452.77 175.392 450.962 175.696 449.422 176.305C447.882 176.913 446.701 177.791 445.877 178.937C445.053 180.047 444.642 181.354 444.642 182.857V182.911C444.642 184.057 444.91 185.095 445.447 186.026C446.02 186.957 446.933 187.763 448.187 188.443C449.44 189.124 451.051 189.697 453.021 190.162L462.259 192.311C468.024 193.635 472.106 195.515 474.505 197.95C476.94 200.349 478.157 203.59 478.157 207.672V207.726C478.157 211.163 477.173 214.189 475.203 216.803C473.234 219.417 470.512 221.458 467.039 222.926C463.602 224.394 459.663 225.128 455.223 225.128ZM507.054 225.128C501.468 225.128 497.296 223.875 494.539 221.368C491.818 218.826 490.457 214.726 490.457 209.068V176.734H482.347V167.496H490.457V152.779H502.381V167.496H512.962V176.734H502.381V208.424C502.381 211.288 503.007 213.258 504.261 214.332C505.514 215.37 507.376 215.89 509.847 215.89C510.455 215.89 511.01 215.872 511.512 215.836C512.049 215.764 512.532 215.711 512.962 215.675V224.645C512.282 224.752 511.422 224.859 510.384 224.967C509.345 225.074 508.235 225.128 507.054 225.128ZM538.26 225.021C534.5 225.021 531.206 224.304 528.377 222.872C525.548 221.44 523.346 219.435 521.771 216.856C520.195 214.278 519.407 211.306 519.407 207.94V207.833C519.407 204.539 520.231 201.71 521.878 199.347C523.525 196.948 525.906 195.05 529.021 193.653C532.173 192.257 535.968 191.433 540.408 191.183L561.785 189.894V198.058L541.966 199.293C538.493 199.508 535.807 200.349 533.909 201.817C532.047 203.25 531.116 205.165 531.116 207.564V207.672C531.116 210.143 532.047 212.094 533.909 213.526C535.807 214.959 538.313 215.675 541.429 215.675C544.15 215.675 546.585 215.12 548.733 214.01C550.918 212.9 552.636 211.378 553.89 209.444C555.143 207.475 555.77 205.273 555.77 202.838V186.026C555.77 182.911 554.803 180.476 552.869 178.722C550.936 176.931 548.16 176.036 544.544 176.036C541.214 176.036 538.528 176.752 536.487 178.185C534.482 179.617 533.229 181.461 532.728 183.717L532.62 184.2H521.663L521.717 183.609C522.003 180.351 523.095 177.433 524.993 174.854C526.891 172.241 529.523 170.182 532.889 168.678C536.255 167.174 540.247 166.422 544.866 166.422C549.485 166.422 553.478 167.192 556.844 168.731C560.21 170.271 562.824 172.438 564.686 175.23C566.548 178.023 567.479 181.3 567.479 185.06V224H555.77V215.084H555.555C554.445 217.125 553.012 218.897 551.258 220.401C549.503 221.869 547.516 223.015 545.296 223.839C543.112 224.627 540.766 225.021 538.26 225.021ZM579.134 224V146.495H590.789V224H579.134ZM603.196 224V146.495H614.852V224H603.196Z" fill="url(#paint2_linear_1_7)"/>
<path d="M633.436 224.806C631.43 224.806 629.747 224.125 628.387 222.765C627.026 221.404 626.346 219.721 626.346 217.716C626.346 215.746 627.026 214.081 628.387 212.721C629.747 211.36 631.43 210.68 633.436 210.68C635.405 210.68 637.07 211.36 638.431 212.721C639.791 214.081 640.472 215.746 640.472 217.716C640.472 219.721 639.791 221.404 638.431 222.765C637.07 224.125 635.405 224.806 633.436 224.806ZM913.162 224.806C911.157 224.806 909.474 224.125 908.113 222.765C906.753 221.404 906.072 219.721 906.072 217.716C906.072 215.746 906.753 214.081 908.113 212.721C909.474 211.36 911.157 210.68 913.162 210.68C915.132 210.68 916.797 211.36 918.157 212.721C919.518 214.081 920.198 215.746 920.198 217.716C920.198 219.721 919.518 221.404 918.157 222.765C916.797 224.125 915.132 224.806 913.162 224.806Z" fill="white"/>
<path d="M675.384 224V214.171H698.05C703.421 214.171 707.521 213.097 710.35 210.948C713.178 208.8 714.593 205.667 714.593 201.549V201.441C714.593 198.648 713.93 196.321 712.605 194.459C711.316 192.597 709.383 191.201 706.805 190.27C704.227 189.303 701.022 188.819 697.19 188.819H675.384V179.527H694.773C700.073 179.527 704.119 178.489 706.912 176.412C709.705 174.335 711.102 171.363 711.102 167.496V167.389C711.102 163.808 709.902 161.069 707.503 159.171C705.14 157.273 701.774 156.324 697.405 156.324H675.384V146.495H700.306C704.925 146.495 708.935 147.301 712.337 148.912C715.774 150.488 718.424 152.743 720.286 155.68C722.184 158.58 723.133 161.982 723.133 165.885V165.992C723.133 168.714 722.506 171.292 721.253 173.727C720 176.161 718.281 178.202 716.097 179.85C713.948 181.497 711.495 182.517 708.738 182.911V183.126C712.426 183.484 715.631 184.522 718.353 186.241C721.11 187.924 723.222 190.126 724.69 192.848C726.194 195.533 726.946 198.595 726.946 202.032V202.14C726.946 206.687 725.872 210.59 723.724 213.849C721.611 217.107 718.585 219.614 714.646 221.368C710.708 223.123 705.981 224 700.467 224H675.384ZM669.368 224V146.495H681.399V224H669.368ZM755.091 225.128C750.973 225.128 747.446 224.286 744.51 222.604C741.609 220.885 739.389 218.45 737.85 215.299C736.31 212.148 735.54 208.406 735.54 204.073V167.496H747.249V201.871C747.249 206.132 748.234 209.409 750.203 211.7C752.208 213.956 755.216 215.084 759.227 215.084C761.303 215.084 763.147 214.744 764.759 214.063C766.406 213.347 767.82 212.363 769.002 211.109C770.184 209.82 771.079 208.281 771.688 206.49C772.332 204.664 772.654 202.659 772.654 200.475V167.496H784.31V224H772.654V215.514H772.386C771.419 217.376 770.13 219.041 768.519 220.509C766.907 221.941 764.974 223.069 762.718 223.893C760.498 224.716 757.955 225.128 755.091 225.128ZM796.233 224V167.496H807.942V224H796.233ZM802.088 158.795C800.226 158.795 798.632 158.15 797.308 156.861C795.983 155.536 795.32 153.961 795.32 152.135C795.32 150.237 795.983 148.644 797.308 147.354C798.632 146.065 800.226 145.421 802.088 145.421C803.986 145.421 805.579 146.065 806.868 147.354C808.193 148.644 808.855 150.237 808.855 152.135C808.855 153.961 808.193 155.536 806.868 156.861C805.579 158.15 803.986 158.795 802.088 158.795ZM820.296 224V146.495H831.951V224H820.296ZM865.037 225.128C860.239 225.128 856.067 223.928 852.522 221.529C848.978 219.13 846.238 215.746 844.305 211.378C842.371 206.974 841.404 201.764 841.404 195.748V195.694C841.404 189.679 842.371 184.487 844.305 180.118C846.274 175.75 849.013 172.384 852.522 170.021C856.067 167.621 860.203 166.422 864.93 166.422C867.579 166.422 870.05 166.852 872.342 167.711C874.633 168.57 876.657 169.806 878.411 171.417C880.201 172.993 881.652 174.89 882.762 177.11H882.977V146.495H894.686V224H882.977V214.439H882.762C881.652 216.66 880.219 218.557 878.465 220.133C876.746 221.708 874.759 222.944 872.503 223.839C870.247 224.698 867.758 225.128 865.037 225.128ZM868.099 215.084C871.035 215.084 873.613 214.296 875.833 212.721C878.089 211.109 879.843 208.854 881.097 205.953C882.386 203.053 883.03 199.651 883.03 195.748V195.694C883.03 191.791 882.386 188.408 881.097 185.543C879.808 182.643 878.053 180.405 875.833 178.829C873.613 177.218 871.035 176.412 868.099 176.412C865.055 176.412 862.423 177.2 860.203 178.775C857.983 180.315 856.264 182.535 855.047 185.436C853.865 188.3 853.274 191.72 853.274 195.694V195.748C853.274 199.723 853.865 203.178 855.047 206.114C856.264 209.015 857.983 211.235 860.203 212.774C862.423 214.314 865.055 215.084 868.099 215.084Z" fill="url(#paint3_linear_1_7)"/>
<path d="M975.521 225.289C969.72 225.289 964.635 224.412 960.267 222.657C955.934 220.903 952.496 218.396 949.954 215.138C947.412 211.843 945.979 207.923 945.657 203.375L945.604 202.569H957.366L957.474 203.268C957.832 205.631 958.816 207.69 960.428 209.444C962.075 211.163 964.223 212.488 966.873 213.419C969.523 214.35 972.566 214.815 976.004 214.815C979.477 214.815 982.467 214.332 984.974 213.365C987.48 212.398 989.414 211.02 990.774 209.229C992.171 207.439 992.869 205.344 992.869 202.945V202.892C992.869 199.776 991.741 197.306 989.485 195.479C987.265 193.618 983.577 192.132 978.421 191.021L969.988 189.249C962.397 187.638 956.74 185.06 953.016 181.515C949.292 177.934 947.43 173.279 947.43 167.55V167.496C947.465 163.092 948.683 159.225 951.082 155.895C953.481 152.529 956.793 149.915 961.019 148.053C965.244 146.155 970.096 145.206 975.574 145.206C980.945 145.206 985.69 146.119 989.808 147.945C993.925 149.771 997.184 152.332 999.583 155.626C1001.98 158.884 1003.32 162.698 1003.61 167.066L1003.67 167.926H991.902L991.795 167.228C991.473 164.793 990.577 162.716 989.109 160.997C987.677 159.278 985.797 157.971 983.47 157.076C981.142 156.145 978.439 155.68 975.359 155.68C972.173 155.68 969.397 156.163 967.034 157.13C964.671 158.061 962.845 159.368 961.556 161.051C960.267 162.734 959.622 164.721 959.622 167.013V167.066C959.622 169.967 960.768 172.33 963.06 174.156C965.351 175.982 968.914 177.415 973.748 178.453L982.181 180.279C987.516 181.389 991.867 182.893 995.232 184.791C998.598 186.689 1001.09 189.052 1002.7 191.881C1004.31 194.71 1005.12 198.129 1005.12 202.14V202.193C1005.12 206.92 1003.92 211.02 1001.52 214.493C999.153 217.931 995.752 220.598 991.312 222.496C986.907 224.358 981.644 225.289 975.521 225.289ZM1014.94 224V146.495H1026.6V176.788H1026.87C1028.34 173.494 1030.56 170.951 1033.53 169.161C1036.54 167.335 1040.15 166.422 1044.38 166.422C1048.42 166.422 1051.93 167.371 1054.91 169.269C1057.91 171.131 1060.24 173.762 1061.89 177.164C1063.57 180.566 1064.41 184.54 1064.41 189.088V224H1052.76V191.29C1052.76 186.599 1051.63 182.947 1049.37 180.333C1047.12 177.719 1043.95 176.412 1039.87 176.412C1037.22 176.412 1034.89 177.039 1032.88 178.292C1030.91 179.545 1029.37 181.282 1028.26 183.502C1027.15 185.722 1026.6 188.318 1026.6 191.29V224H1014.94ZM1076.07 224V167.496H1087.78V224H1076.07ZM1081.92 158.795C1080.06 158.795 1078.47 158.15 1077.14 156.861C1075.82 155.536 1075.15 153.961 1075.15 152.135C1075.15 150.237 1075.82 148.644 1077.14 147.354C1078.47 146.065 1080.06 145.421 1081.92 145.421C1083.82 145.421 1085.41 146.065 1086.7 147.354C1088.03 148.644 1088.69 150.237 1088.69 152.135C1088.69 153.961 1088.03 155.536 1086.7 156.861C1085.41 158.15 1083.82 158.795 1081.92 158.795ZM1099.65 242.799V167.496H1111.36V177.164H1111.62C1112.73 174.944 1114.15 173.028 1115.87 171.417C1117.62 169.806 1119.63 168.57 1121.88 167.711C1124.14 166.852 1126.61 166.422 1129.29 166.422C1134.09 166.422 1138.26 167.621 1141.81 170.021C1145.35 172.384 1148.09 175.768 1150.03 180.172C1151.96 184.54 1152.93 189.732 1152.93 195.748V195.802C1152.93 201.817 1151.94 207.009 1149.97 211.378C1148.04 215.746 1145.32 219.13 1141.81 221.529C1138.3 223.928 1134.18 225.128 1129.46 225.128C1126.81 225.128 1124.32 224.698 1121.99 223.839C1119.7 222.979 1117.68 221.762 1115.92 220.187C1114.17 218.575 1112.72 216.677 1111.57 214.493H1111.36V242.799H1099.65ZM1126.23 215.084C1129.28 215.084 1131.91 214.314 1134.13 212.774C1136.35 211.199 1138.05 208.961 1139.23 206.061C1140.41 203.16 1141 199.741 1141 195.802V195.748C1141 191.738 1140.41 188.282 1139.23 185.382C1138.05 182.481 1136.35 180.261 1134.13 178.722C1131.91 177.182 1129.28 176.412 1126.23 176.412C1123.3 176.412 1120.7 177.218 1118.45 178.829C1116.19 180.405 1114.42 182.643 1113.13 185.543C1111.87 188.408 1111.25 191.809 1111.25 195.748V195.802C1111.25 199.705 1111.89 203.106 1113.18 206.007C1114.47 208.871 1116.23 211.109 1118.45 212.721C1120.7 214.296 1123.3 215.084 1126.23 215.084Z" fill="url(#paint4_linear_1_7)"/>
<defs>
<linearGradient id="paint0_linear_1_7" x1="12.9999" y1="0.00017648" x2="1500" y2="399" gradientUnits="userSpaceOnUse">
<stop/>
<stop offset="1" stop-color="#030303"/>
</linearGradient>
<linearGradient id="paint1_linear_1_7" x1="1461.5" y1="473.976" x2="1473.22" y2="421.101" gradientUnits="userSpaceOnUse">
<stop stop-color="#9A9A9A"/>
<stop offset="0.916667" stop-color="white"/>
</linearGradient>
<linearGradient id="paint2_linear_1_7" x1="749.5" y1="119" x2="749.5" y2="250" gradientUnits="userSpaceOnUse">
<stop stop-color="white"/>
<stop offset="1" stop-color="#C6C6C6"/>
</linearGradient>
<linearGradient id="paint3_linear_1_7" x1="749.5" y1="119" x2="749.5" y2="250" gradientUnits="userSpaceOnUse">
<stop stop-color="#BFBFBF"/>
<stop offset="1" stop-color="white"/>
</linearGradient>
<linearGradient id="paint4_linear_1_7" x1="749.5" y1="119" x2="749.5" y2="250" gradientUnits="userSpaceOnUse">
<stop stop-color="#DBFF00"/>
<stop offset="1" stop-color="#ECFF79"/>
</linearGradient>
</defs>
</svg>
