<svg width="1500" height="500" viewBox="0 0 1500 500" fill="none" xmlns="http://www.w3.org/2000/svg">
<g clip-path="url(#clip0_5_2)">
<rect width="1500" height="500" fill="url(#paint0_linear_5_2)"/>
<path d="M412 844L737 515L1081.5 391L1042.5 257" stroke="#333333" stroke-width="4" stroke-dasharray="32 32"/>
<path d="M1473.15 392.289L1469.59 447.472L1417.52 463.917L1459.51 416.712L1417.52 423.596L1473.15 392.289Z" fill="url(#paint1_linear_5_2)"/>
<path d="M233.159 290V280.171H255.825C261.196 280.171 265.296 279.097 268.125 276.948C270.954 274.8 272.368 271.667 272.368 267.549V267.441C272.368 264.648 271.706 262.321 270.381 260.459C269.092 258.597 267.158 257.201 264.58 256.27C262.002 255.303 258.797 254.819 254.966 254.819H233.159V245.527H252.549C257.848 245.527 261.895 244.489 264.688 242.412C267.48 240.335 268.877 237.363 268.877 233.496V233.389C268.877 229.808 267.677 227.069 265.278 225.171C262.915 223.273 259.549 222.324 255.181 222.324H233.159V212.495H258.081C262.7 212.495 266.711 213.301 270.112 214.912C273.55 216.488 276.2 218.743 278.062 221.68C279.959 224.58 280.908 227.982 280.908 231.885V231.992C280.908 234.714 280.282 237.292 279.028 239.727C277.775 242.161 276.056 244.202 273.872 245.85C271.724 247.497 269.271 248.517 266.514 248.911V249.126C270.202 249.484 273.407 250.522 276.128 252.241C278.885 253.924 280.998 256.126 282.466 258.848C283.97 261.533 284.722 264.595 284.722 268.032V268.14C284.722 272.687 283.647 276.59 281.499 279.849C279.386 283.107 276.361 285.614 272.422 287.368C268.483 289.123 263.757 290 258.242 290H233.159ZM227.144 290V212.495H239.175V290H227.144ZM317.754 291.128C312.24 291.128 307.477 289.946 303.467 287.583C299.492 285.184 296.431 281.8 294.282 277.432C292.17 273.027 291.113 267.853 291.113 261.909V261.855C291.113 255.983 292.188 250.845 294.336 246.44C296.484 242 299.51 238.563 303.413 236.128C307.316 233.657 311.899 232.422 317.163 232.422C322.463 232.422 327.01 233.604 330.806 235.967C334.637 238.294 337.591 241.606 339.668 245.903C341.745 250.164 342.783 255.124 342.783 260.781V264.702H296.86V256.484H337.144L331.396 264.165V259.653C331.396 255.679 330.788 252.384 329.57 249.771C328.389 247.121 326.724 245.151 324.575 243.862C322.463 242.573 320.01 241.929 317.217 241.929C314.46 241.929 311.989 242.609 309.805 243.97C307.62 245.33 305.902 247.336 304.648 249.985C303.395 252.599 302.769 255.822 302.769 259.653V264.165C302.769 267.817 303.377 270.951 304.595 273.564C305.848 276.143 307.62 278.13 309.912 279.526C312.204 280.887 314.907 281.567 318.022 281.567C320.314 281.567 322.337 281.227 324.092 280.547C325.846 279.831 327.297 278.9 328.442 277.754C329.624 276.572 330.448 275.265 330.913 273.833L331.074 273.403H342.139L342.031 273.994C341.566 276.214 340.688 278.345 339.399 280.386C338.11 282.427 336.427 284.271 334.351 285.918C332.31 287.529 329.893 288.8 327.1 289.731C324.307 290.662 321.191 291.128 317.754 291.128ZM368.35 291.021C364.59 291.021 361.296 290.304 358.467 288.872C355.638 287.44 353.436 285.435 351.86 282.856C350.285 280.278 349.497 277.306 349.497 273.94V273.833C349.497 270.539 350.321 267.71 351.968 265.347C353.615 262.948 355.996 261.05 359.111 259.653C362.262 258.257 366.058 257.433 370.498 257.183L391.875 255.894V264.058L372.056 265.293C368.582 265.508 365.897 266.349 363.999 267.817C362.137 269.25 361.206 271.165 361.206 273.564V273.672C361.206 276.143 362.137 278.094 363.999 279.526C365.897 280.959 368.403 281.675 371.519 281.675C374.24 281.675 376.675 281.12 378.823 280.01C381.007 278.9 382.726 277.378 383.979 275.444C385.233 273.475 385.859 271.273 385.859 268.838V252.026C385.859 248.911 384.893 246.476 382.959 244.722C381.025 242.931 378.25 242.036 374.634 242.036C371.304 242.036 368.618 242.752 366.577 244.185C364.572 245.617 363.319 247.461 362.817 249.717L362.71 250.2H351.753L351.807 249.609C352.093 246.351 353.185 243.433 355.083 240.854C356.981 238.241 359.613 236.182 362.979 234.678C366.344 233.174 370.337 232.422 374.956 232.422C379.575 232.422 383.568 233.192 386.934 234.731C390.299 236.271 392.913 238.438 394.775 241.23C396.637 244.023 397.568 247.3 397.568 251.06V290H385.859V281.084H385.645C384.535 283.125 383.102 284.897 381.348 286.401C379.593 287.869 377.606 289.015 375.386 289.839C373.201 290.627 370.856 291.021 368.35 291.021ZM428.022 291.128C423.905 291.128 420.378 290.286 417.441 288.604C414.541 286.885 412.321 284.45 410.781 281.299C409.242 278.148 408.472 274.406 408.472 270.073V233.496H420.181V267.871C420.181 272.132 421.165 275.409 423.135 277.7C425.14 279.956 428.148 281.084 432.158 281.084C434.235 281.084 436.079 280.744 437.69 280.063C439.338 279.347 440.752 278.363 441.934 277.109C443.115 275.82 444.01 274.281 444.619 272.49C445.264 270.664 445.586 268.659 445.586 266.475V233.496H457.241V290H445.586V281.514H445.317C444.351 283.376 443.062 285.041 441.45 286.509C439.839 287.941 437.905 289.069 435.649 289.893C433.429 290.716 430.887 291.128 428.022 291.128ZM488.608 291.128C483.022 291.128 478.851 289.875 476.094 287.368C473.372 284.826 472.012 280.726 472.012 275.068V242.734H463.901V233.496H472.012V218.779H483.936V233.496H494.517V242.734H483.936V274.424C483.936 277.288 484.562 279.258 485.815 280.332C487.069 281.37 488.931 281.89 491.401 281.89C492.01 281.89 492.565 281.872 493.066 281.836C493.604 281.764 494.087 281.711 494.517 281.675V290.645C493.836 290.752 492.977 290.859 491.938 290.967C490.9 291.074 489.79 291.128 488.608 291.128ZM504.507 290V233.496H516.216V290H504.507ZM510.361 224.795C508.499 224.795 506.906 224.15 505.581 222.861C504.256 221.536 503.594 219.961 503.594 218.135C503.594 216.237 504.256 214.644 505.581 213.354C506.906 212.065 508.499 211.421 510.361 211.421C512.259 211.421 513.853 212.065 515.142 213.354C516.466 214.644 517.129 216.237 517.129 218.135C517.129 219.961 516.466 221.536 515.142 222.861C513.853 224.15 512.259 224.795 510.361 224.795ZM531.523 290V242.734H523.735V233.496H531.523V227.48C531.523 223.828 532.114 220.82 533.296 218.457C534.478 216.058 536.286 214.285 538.721 213.14C541.191 211.958 544.342 211.367 548.174 211.367C549.355 211.367 550.537 211.421 551.719 211.528C552.936 211.6 553.921 211.707 554.673 211.851V220.444C554.136 220.373 553.509 220.319 552.793 220.283C552.077 220.247 551.361 220.229 550.645 220.229C548.066 220.229 546.151 220.856 544.897 222.109C543.644 223.327 543.018 225.189 543.018 227.695V233.496H554.458V242.734H543.232V290H531.523ZM582.925 291.128C578.807 291.128 575.28 290.286 572.344 288.604C569.443 286.885 567.223 284.45 565.684 281.299C564.144 278.148 563.374 274.406 563.374 270.073V233.496H575.083V267.871C575.083 272.132 576.068 275.409 578.037 277.7C580.042 279.956 583.05 281.084 587.061 281.084C589.137 281.084 590.981 280.744 592.593 280.063C594.24 279.347 595.654 278.363 596.836 277.109C598.018 275.82 598.913 274.281 599.521 272.49C600.166 270.664 600.488 268.659 600.488 266.475V233.496H612.144V290H600.488V281.514H600.22C599.253 283.376 597.964 285.041 596.353 286.509C594.741 287.941 592.808 289.069 590.552 289.893C588.332 290.716 585.789 291.128 582.925 291.128ZM624.067 290V212.495H635.723V290H624.067ZM704.473 291.289C697.168 291.289 690.812 289.66 685.405 286.401C680.034 283.143 675.881 278.524 672.944 272.544C670.008 266.528 668.54 259.421 668.54 251.221V251.167C668.54 242.967 670.008 235.877 672.944 229.897C675.881 223.918 680.034 219.316 685.405 216.094C690.776 212.835 697.132 211.206 704.473 211.206C710.166 211.206 715.304 212.298 719.888 214.482C724.471 216.667 728.249 219.692 731.221 223.56C734.193 227.427 736.073 231.921 736.86 237.041L736.914 237.578H724.937L724.614 236.504C723.791 233.46 722.448 230.846 720.586 228.662C718.76 226.478 716.486 224.813 713.765 223.667C711.079 222.485 707.982 221.895 704.473 221.895C699.674 221.895 695.503 223.094 691.958 225.493C688.449 227.892 685.728 231.276 683.794 235.645C681.86 240.013 680.894 245.187 680.894 251.167V251.221C680.894 257.165 681.86 262.357 683.794 266.797C685.728 271.201 688.467 274.603 692.012 277.002C695.557 279.401 699.71 280.601 704.473 280.601C707.91 280.601 710.972 280.028 713.657 278.882C716.379 277.7 718.688 275.981 720.586 273.726C722.484 271.47 723.898 268.713 724.829 265.454L724.99 264.917H736.968L736.86 265.454C736.073 270.61 734.193 275.14 731.221 279.043C728.285 282.91 724.525 285.918 719.941 288.066C715.358 290.215 710.202 291.289 704.473 291.289ZM770.859 291.128C765.452 291.128 760.726 289.946 756.68 287.583C752.669 285.184 749.554 281.8 747.334 277.432C745.114 273.027 744.004 267.799 744.004 261.748V261.641C744.004 255.625 745.114 250.433 747.334 246.064C749.59 241.696 752.723 238.33 756.733 235.967C760.78 233.604 765.47 232.422 770.806 232.422C776.177 232.422 780.868 233.604 784.878 235.967C788.924 238.294 792.057 241.642 794.277 246.011C796.533 250.379 797.661 255.589 797.661 261.641V261.748C797.661 267.835 796.533 273.063 794.277 277.432C792.057 281.8 788.942 285.184 784.932 287.583C780.921 289.946 776.23 291.128 770.859 291.128ZM770.913 281.353C773.921 281.353 776.535 280.583 778.755 279.043C780.975 277.503 782.694 275.283 783.911 272.383C785.129 269.447 785.737 265.902 785.737 261.748V261.641C785.737 257.523 785.129 254.014 783.911 251.113C782.694 248.177 780.957 245.957 778.701 244.453C776.445 242.913 773.813 242.144 770.806 242.144C767.834 242.144 765.22 242.913 762.964 244.453C760.744 245.993 759.007 248.213 757.754 251.113C756.501 254.014 755.874 257.523 755.874 261.641V261.748C755.874 265.902 756.483 269.447 757.7 272.383C758.953 275.283 760.708 277.503 762.964 279.043C765.22 280.583 767.869 281.353 770.913 281.353ZM806.631 290V233.496H818.34V242.251H818.555C819.772 239.279 821.759 236.898 824.517 235.107C827.274 233.317 830.496 232.422 834.185 232.422C836.763 232.422 839.09 232.852 841.167 233.711C843.28 234.57 845.088 235.841 846.592 237.524C848.096 239.172 849.206 241.177 849.922 243.54H850.19C851.157 241.248 852.5 239.279 854.219 237.632C855.973 235.949 857.996 234.66 860.288 233.765C862.616 232.869 865.122 232.422 867.808 232.422C871.532 232.422 874.772 233.21 877.529 234.785C880.286 236.325 882.435 238.491 883.975 241.284C885.514 244.077 886.284 247.354 886.284 251.113V290H874.575V253.96C874.575 251.489 874.146 249.395 873.286 247.676C872.463 245.957 871.245 244.65 869.634 243.755C868.058 242.86 866.107 242.412 863.779 242.412C861.488 242.412 859.465 242.931 857.71 243.97C855.991 245.008 854.631 246.458 853.628 248.32C852.661 250.182 852.178 252.295 852.178 254.658V290H840.737V253.101C840.737 250.916 840.29 249.036 839.395 247.461C838.535 245.85 837.318 244.614 835.742 243.755C834.167 242.86 832.269 242.412 830.049 242.412C827.793 242.412 825.77 242.967 823.979 244.077C822.225 245.151 820.846 246.637 819.844 248.535C818.841 250.433 818.34 252.617 818.34 255.088V290H806.631ZM897.402 308.799V233.496H909.111V243.164H909.38C910.49 240.944 911.904 239.028 913.623 237.417C915.378 235.806 917.383 234.57 919.639 233.711C921.895 232.852 924.365 232.422 927.051 232.422C931.849 232.422 936.021 233.621 939.565 236.021C943.11 238.384 945.85 241.768 947.783 246.172C949.717 250.54 950.684 255.732 950.684 261.748V261.802C950.684 267.817 949.699 273.009 947.729 277.378C945.796 281.746 943.075 285.13 939.565 287.529C936.056 289.928 931.938 291.128 927.212 291.128C924.562 291.128 922.074 290.698 919.746 289.839C917.454 288.979 915.431 287.762 913.677 286.187C911.922 284.575 910.472 282.677 909.326 280.493H909.111V308.799H897.402ZM923.989 281.084C927.033 281.084 929.665 280.314 931.885 278.774C934.105 277.199 935.806 274.961 936.987 272.061C938.169 269.16 938.76 265.741 938.76 261.802V261.748C938.76 257.738 938.169 254.282 936.987 251.382C935.806 248.481 934.105 246.261 931.885 244.722C929.665 243.182 927.033 242.412 923.989 242.412C921.053 242.412 918.457 243.218 916.201 244.829C913.945 246.405 912.173 248.643 910.884 251.543C909.631 254.408 909.004 257.809 909.004 261.748V261.802C909.004 265.705 909.648 269.106 910.938 272.007C912.227 274.871 913.981 277.109 916.201 278.721C918.457 280.296 921.053 281.084 923.989 281.084ZM983.984 291.128C978.577 291.128 973.851 289.946 969.805 287.583C965.794 285.184 962.679 281.8 960.459 277.432C958.239 273.027 957.129 267.799 957.129 261.748V261.641C957.129 255.625 958.239 250.433 960.459 246.064C962.715 241.696 965.848 238.33 969.858 235.967C973.905 233.604 978.595 232.422 983.931 232.422C989.302 232.422 993.993 233.604 998.003 235.967C1002.05 238.294 1005.18 241.642 1007.4 246.011C1009.66 250.379 1010.79 255.589 1010.79 261.641V261.748C1010.79 267.835 1009.66 273.063 1007.4 277.432C1005.18 281.8 1002.07 285.184 998.057 287.583C994.046 289.946 989.355 291.128 983.984 291.128ZM984.038 281.353C987.046 281.353 989.66 280.583 991.88 279.043C994.1 277.503 995.819 275.283 997.036 272.383C998.254 269.447 998.862 265.902 998.862 261.748V261.641C998.862 257.523 998.254 254.014 997.036 251.113C995.819 248.177 994.082 245.957 991.826 244.453C989.57 242.913 986.938 242.144 983.931 242.144C980.959 242.144 978.345 242.913 976.089 244.453C973.869 245.993 972.132 248.213 970.879 251.113C969.626 254.014 968.999 257.523 968.999 261.641V261.748C968.999 265.902 969.608 269.447 970.825 272.383C972.078 275.283 973.833 277.503 976.089 279.043C978.345 280.583 980.994 281.353 984.038 281.353ZM1019.76 290V233.496H1031.46V242.036H1031.68C1033.18 239.172 1035.39 236.862 1038.29 235.107C1041.19 233.317 1044.77 232.422 1049.03 232.422C1055.22 232.422 1060.02 234.302 1063.42 238.062C1066.82 241.785 1068.53 246.906 1068.53 253.423V290H1056.87V255.679C1056.87 251.418 1055.87 248.141 1053.86 245.85C1051.89 243.558 1048.9 242.412 1044.89 242.412C1042.17 242.412 1039.79 243.021 1037.75 244.238C1035.74 245.456 1034.19 247.157 1033.08 249.341C1032 251.525 1031.46 254.103 1031.46 257.075V290H1019.76ZM1103.87 291.128C1098.35 291.128 1093.59 289.946 1089.58 287.583C1085.61 285.184 1082.54 281.8 1080.4 277.432C1078.28 273.027 1077.23 267.853 1077.23 261.909V261.855C1077.23 255.983 1078.3 250.845 1080.45 246.44C1082.6 242 1085.62 238.563 1089.53 236.128C1093.43 233.657 1098.01 232.422 1103.28 232.422C1108.58 232.422 1113.12 233.604 1116.92 235.967C1120.75 238.294 1123.7 241.606 1125.78 245.903C1127.86 250.164 1128.9 255.124 1128.9 260.781V264.702H1082.97V256.484H1123.26L1117.51 264.165V259.653C1117.51 255.679 1116.9 252.384 1115.68 249.771C1114.5 247.121 1112.84 245.151 1110.69 243.862C1108.58 242.573 1106.12 241.929 1103.33 241.929C1100.57 241.929 1098.1 242.609 1095.92 243.97C1093.73 245.33 1092.01 247.336 1090.76 249.985C1089.51 252.599 1088.88 255.822 1088.88 259.653V264.165C1088.88 267.817 1089.49 270.951 1090.71 273.564C1091.96 276.143 1093.73 278.13 1096.03 279.526C1098.32 280.887 1101.02 281.567 1104.14 281.567C1106.43 281.567 1108.45 281.227 1110.21 280.547C1111.96 279.831 1113.41 278.9 1114.56 277.754C1115.74 276.572 1116.56 275.265 1117.03 273.833L1117.19 273.403H1128.25L1128.14 273.994C1127.68 276.214 1126.8 278.345 1125.51 280.386C1124.22 282.427 1122.54 284.271 1120.46 285.918C1118.42 287.529 1116.01 288.8 1113.21 289.731C1110.42 290.662 1107.3 291.128 1103.87 291.128ZM1137.81 290V233.496H1149.52V242.036H1149.74C1151.24 239.172 1153.44 236.862 1156.34 235.107C1159.24 233.317 1162.82 232.422 1167.08 232.422C1173.28 232.422 1178.08 234.302 1181.48 238.062C1184.88 241.785 1186.58 246.906 1186.58 253.423V290H1174.93V255.679C1174.93 251.418 1173.92 248.141 1171.92 245.85C1169.95 243.558 1166.96 242.412 1162.95 242.412C1160.23 242.412 1157.85 243.021 1155.81 244.238C1153.8 245.456 1152.24 247.157 1151.13 249.341C1150.06 251.525 1149.52 254.103 1149.52 257.075V290H1137.81ZM1217.68 291.128C1212.09 291.128 1207.92 289.875 1205.17 287.368C1202.44 284.826 1201.08 280.726 1201.08 275.068V242.734H1192.97V233.496H1201.08V218.779H1213.01V233.496H1223.59V242.734H1213.01V274.424C1213.01 277.288 1213.63 279.258 1214.89 280.332C1216.14 281.37 1218 281.89 1220.47 281.89C1221.08 281.89 1221.64 281.872 1222.14 281.836C1222.68 281.764 1223.16 281.711 1223.59 281.675V290.645C1222.91 290.752 1222.05 290.859 1221.01 290.967C1219.97 291.074 1218.86 291.128 1217.68 291.128ZM1254.37 291.128C1249.64 291.128 1245.57 290.412 1242.17 288.979C1238.81 287.511 1236.16 285.488 1234.22 282.91C1232.29 280.296 1231.13 277.271 1230.73 273.833L1230.68 273.35H1242.17L1242.28 273.887C1242.85 276.465 1244.12 278.488 1246.09 279.956C1248.06 281.388 1250.82 282.104 1254.37 282.104C1256.73 282.104 1258.73 281.818 1260.38 281.245C1262.03 280.636 1263.3 279.777 1264.19 278.667C1265.09 277.557 1265.54 276.232 1265.54 274.692V274.639C1265.54 272.812 1264.95 271.344 1263.76 270.234C1262.58 269.124 1260.47 268.193 1257.43 267.441L1248.19 265.347C1244.61 264.523 1241.62 263.395 1239.22 261.963C1236.86 260.531 1235.08 258.776 1233.9 256.699C1232.72 254.622 1232.13 252.223 1232.13 249.502V249.448C1232.13 246.047 1233.04 243.075 1234.87 240.532C1236.69 237.954 1239.25 235.967 1242.55 234.57C1245.84 233.138 1249.66 232.422 1253.99 232.422C1258.43 232.422 1262.26 233.174 1265.48 234.678C1268.71 236.182 1271.21 238.241 1273 240.854C1274.83 243.433 1275.83 246.315 1276.01 249.502V250.146H1265.11L1265.05 249.771C1264.73 247.3 1263.62 245.295 1261.72 243.755C1259.83 242.179 1257.25 241.392 1253.99 241.392C1251.91 241.392 1250.1 241.696 1248.56 242.305C1247.02 242.913 1245.84 243.791 1245.02 244.937C1244.2 246.047 1243.78 247.354 1243.78 248.857V248.911C1243.78 250.057 1244.05 251.095 1244.59 252.026C1245.16 252.957 1246.08 253.763 1247.33 254.443C1248.58 255.124 1250.19 255.697 1252.16 256.162L1261.4 258.311C1267.17 259.635 1271.25 261.515 1273.65 263.95C1276.08 266.349 1277.3 269.59 1277.3 273.672V273.726C1277.3 277.163 1276.32 280.189 1274.35 282.803C1272.38 285.417 1269.65 287.458 1266.18 288.926C1262.74 290.394 1258.81 291.128 1254.37 291.128Z" fill="url(#paint2_linear_5_2)"/>
<path d="M-115 518L210 189L554.5 65L515.5 -69" stroke="#333333" stroke-width="4" stroke-dasharray="32 32"/>
</g>
<defs>
<linearGradient id="paint0_linear_5_2" x1="12.9999" y1="0.00017648" x2="1500" y2="399" gradientUnits="userSpaceOnUse">
<stop/>
<stop offset="1" stop-color="#030303"/>
</linearGradient>
<linearGradient id="paint1_linear_5_2" x1="1437" y1="468.235" x2="1454.74" y2="388.207" gradientUnits="userSpaceOnUse">
<stop stop-color="#9A9A9A"/>
<stop offset="0.916667" stop-color="white"/>
</linearGradient>
<linearGradient id="paint2_linear_5_2" x1="750.5" y1="185" x2="750.5" y2="316" gradientUnits="userSpaceOnUse">
<stop stop-color="#BFBFBF"/>
<stop offset="1" stop-color="white"/>
</linearGradient>
<clipPath id="clip0_5_2">
<rect width="1500" height="500" fill="white"/>
</clipPath>
</defs>
</svg>
